<?xml version="1.0" encoding="UTF-8" standalone="no"?>
<svg
   xmlns:dc="http://purl.org/dc/elements/1.1/"
   xmlns:cc="http://creativecommons.org/ns#"
   xmlns:rdf="http://www.w3.org/1999/02/22-rdf-syntax-ns#"
   xmlns:svg="http://www.w3.org/2000/svg"
   xmlns="http://www.w3.org/2000/svg"
   width="35mm"
   height="35mm"
   viewBox="0 0 35 35"
   version="1.1"
   id="svg951">
  <title
     id="title840">LKP Logo Draft 4</title>
  <defs
     id="defs945" />
  <metadata
     id="metadata948">
    <rdf:RDF>
      <cc:Work
         rdf:about="">
        <dc:format>image/svg+xml</dc:format>
        <dc:type
           rdf:resource="http://purl.org/dc/dcmitype/StillImage" />
        <dc:title>LKP Logo Draft 4</dc:title>
        <dc:creator>
          <cc:Agent>
            <dc:title>dogtopus</dc:title>
          </cc:Agent>
        </dc:creator>
        <dc:date>2020-12-13</dc:date>
      </cc:Work>
    </rdf:RDF>
  </metadata>
  <g
     id="layer1">
    <g
       id="g1539"
       transform="translate(-107.23171,-67.922621)">
      <g
         id="g889">
        <g
           id="g1011"
           transform="translate(74.341943,55.416801)">
          <path
             style="fill:#fad90d;fill-opacity:1;stroke:none;stroke-width:0.25;stroke-linejoin:round;stroke-opacity:1"
             id="path894-3"
             d="m 95,101 8.5,-14.722432 17,10e-7 L 129,101 l -8.5,14.72243 -17,0 z"
             transform="matrix(0,1,1,0,-50.609797,-81.994177)" />
        </g>
        <path
           style="fill:#fac10d;fill-opacity:1;fill-rule:evenodd;stroke:none;stroke-width:0.264583px;stroke-linecap:butt;stroke-linejoin:miter;stroke-opacity:1"
           d="m 110.00971,76.922624 14.72243,8.499998 14.72244,-8.499999 -14.72243,-8.499999 z"
           id="path897" />
        <path
           style="fill:#ffffff;fill-opacity:1;fill-rule:evenodd;stroke:none;stroke-width:0.264583px;stroke-linecap:butt;stroke-linejoin:miter;stroke-opacity:1"
           d="m 123.73214,73.422621 -9.99999,5.774003 v 5 l 9.99999,-5.774 z"
           id="path1006-62" />
        <path
           style="fill:#ffffff;fill-opacity:1;fill-rule:evenodd;stroke:none;stroke-width:0.264583px;stroke-linecap:butt;stroke-linejoin:miter;stroke-opacity:1"
           d="m 123.73214,80.422624 -9.99999,5.774 h 5 v 8.339178 l 4.99999,2.88682 z"
           id="path1016-9" />
        <path
           style="fill:#ffffff;fill-opacity:1;fill-rule:evenodd;stroke:none;stroke-width:0.264583px;stroke-linecap:butt;stroke-linejoin:miter;stroke-opacity:1"
           d="m 125.73213,97.422625 9.99999,-5.774004 v -5 l -9.99999,5.774 z"
           id="path1006-6-2" />
        <path
           style="fill:#ffffff;fill-opacity:1;fill-rule:evenodd;stroke:none;stroke-width:0.264583px;stroke-linecap:butt;stroke-linejoin:miter;stroke-opacity:1"
           d="m 125.73213,90.422621 9.99999,-5.774 h -5 v -8.338819 l -4.99999,-2.88719 z"
           id="path1016-7-7" />
        <path
           style="fill:none;fill-opacity:1;stroke:#000000;stroke-width:0.25;stroke-linejoin:round;stroke-opacity:1"
           id="path894-3-3"
           d="m 95,101 8.5,-14.722432 17,10e-7 L 129,101 l -8.5,14.72243 -17,0 z"
           transform="matrix(0,1,1,0,23.732142,-26.577381)" />
      </g>
    </g>
  </g>
</svg>
